<?xml version="1.0" encoding="UTF-8" standalone="no"?>
<!DOCTYPE svg PUBLIC "-//W3C//DTD SVG 1.1//EN" "http://www.w3.org/Graphics/SVG/1.1/DTD/svg11.dtd">
<svg width="100%" height="100%" viewBox="0 0 300 100" version="1.1" xmlns="http://www.w3.org/2000/svg" xmlns:xlink="http://www.w3.org/1999/xlink" xml:space="preserve" xmlns:serif="http://www.serif.com/" style="fill-rule:evenodd;clip-rule:evenodd;stroke-linecap:round;stroke-linejoin:round;stroke-miterlimit:1.5;">
    <g transform="matrix(1.364,0,0,1.364,-129.215,-15.792)">
        <g transform="matrix(1.08084,0,0,1.08084,-3.70736,5.43048)">
            <g transform="matrix(0.634295,0,0,0.634295,80.364,34.3453)">
                <circle cx="111.432" cy="6.7" r="43.969" style="fill:rgb(164,0,0);"/>
            </g>
            <g transform="matrix(0.543799,0,0,-0.54627,89.6719,39.7935)">
                <path d="M110.297,-9.634C134.564,-9.634 155.401,0.147 155.401,6.7C155.401,30.967 135.865,47.986 111.598,47.986C87.331,47.986 67.463,30.967 67.463,6.7C67.463,0.232 86.03,-9.634 110.297,-9.634Z" style="fill:rgb(183,0,0);"/>
            </g>
            <g transform="matrix(0.543799,0,0,0.54627,89.6719,35.7347)">
                <path d="M112.344,10.758C136.611,10.758 155.401,0.147 155.401,6.7C155.401,30.967 135.699,50.669 111.432,50.669C87.165,50.669 67.463,30.967 67.463,6.7C67.463,0.232 88.077,10.758 112.344,10.758Z" style="fill:rgb(237,237,237);"/>
            </g>
            <g transform="matrix(0.86659,0,0,0.86659,25.7085,-1.4086)">
                <circle cx="144.05" cy="48.954" r="9.406" style="fill:rgb(241,241,241);stroke:rgb(164,0,0);stroke-width:1.57px;"/>
            </g>
            <g transform="matrix(0.437328,0,0,0.437328,87.5434,19.6055)">
                <circle cx="144.05" cy="48.954" r="9.406" style="fill:rgb(241,241,241);stroke:rgb(220,220,220);stroke-width:0.85px;"/>
            </g>
        </g>
        <g transform="matrix(2.4857,0,0,2.4857,192.935,45.5249)">
            <path d="M2.424,-0.564L2.424,-1.032C2.424,-1.824 2.388,-2.676 2.388,-3.42C2.388,-3.516 2.4,-3.552 2.46,-3.552C2.484,-3.552 2.508,-3.552 2.544,-3.54C2.856,-3.468 3.144,-3.444 3.42,-3.444C3.72,-3.444 3.996,-3.468 4.284,-3.504C5.964,-3.672 6.888,-5.028 6.888,-6.36C6.888,-7.656 6.012,-8.94 4.116,-9.06C3.936,-9.072 3.696,-9.084 3.444,-9.084C1.092,-9.084 1.08,-8.292 1.08,-6.816C1.08,-5.976 1.104,-4.8 1.104,-3.564C1.104,-2.544 1.092,-1.488 1.044,-0.552L1.044,-0.516C1.044,-0.12 1.392,0.096 1.728,0.096C2.076,0.096 2.412,-0.108 2.424,-0.564ZM3.996,-7.812C5.076,-7.812 5.544,-7.14 5.544,-6.42C5.544,-5.652 4.992,-4.824 4.08,-4.74C3.828,-4.716 3.576,-4.704 3.348,-4.704C2.604,-4.704 2.364,-4.788 2.364,-5.04L2.364,-5.244C2.364,-5.664 2.352,-6.156 2.352,-6.576C2.352,-7.692 2.46,-7.824 3.42,-7.824C3.708,-7.824 3.996,-7.812 3.996,-7.812Z" style="fill:rgb(86,86,86);fill-rule:nonzero;"/>
            <path d="M12.708,0.228C15.348,0.228 17.34,-1.632 17.34,-4.428C17.34,-7.128 15.348,-9.084 12.708,-9.084C10.068,-9.084 8.088,-7.128 8.088,-4.428C8.088,-1.632 10.068,0.228 12.708,0.228ZM12.708,-1.032C10.932,-1.032 9.492,-2.364 9.492,-4.428C9.492,-6.504 10.932,-7.848 12.708,-7.848C14.484,-7.848 15.924,-6.504 15.924,-4.428C15.924,-2.364 14.484,-1.032 12.708,-1.032Z" style="fill:rgb(86,86,86);fill-rule:nonzero;"/>
            <path d="M19.008,-0.468C19.008,-0.084 19.356,0.108 19.704,0.108C20.052,0.108 20.388,-0.072 20.388,-0.456L20.388,-0.48C20.364,-1.032 20.364,-1.56 20.364,-2.04C20.364,-2.82 20.376,-3.456 20.388,-3.768C20.388,-3.948 20.52,-3.96 20.616,-3.96C20.712,-3.96 20.784,-3.972 20.868,-3.972C21.048,-3.972 21.192,-3.936 21.372,-3.732C22.248,-2.712 24.276,-0.54 24.684,-0.12C24.852,0.048 25.032,0.12 25.224,0.12C25.632,0.12 26.028,-0.252 26.028,-0.672C26.028,-0.828 25.968,-1.008 25.824,-1.164C25.62,-1.392 23.424,-3.48 22.404,-4.524C22.332,-4.596 22.296,-4.656 22.296,-4.704C22.296,-4.764 22.332,-4.824 22.404,-4.896C23.244,-5.784 24.708,-7.248 25.236,-7.896C25.332,-8.016 25.368,-8.148 25.368,-8.268C25.368,-8.652 24.972,-9 24.588,-9C24.408,-9 24.228,-8.928 24.096,-8.748C23.604,-8.1 22.212,-6.564 21.348,-5.628C21.132,-5.388 20.952,-5.28 20.7,-5.28C20.412,-5.28 20.388,-5.412 20.388,-5.52C20.376,-5.82 20.364,-6.348 20.364,-6.996C20.364,-7.416 20.376,-7.884 20.388,-8.364L20.388,-8.388C20.388,-8.796 20.04,-9.012 19.692,-9.012C19.272,-9.012 18.996,-8.748 19.008,-8.364C19.032,-7.452 19.044,-6.18 19.044,-4.836C19.044,-3.336 19.032,-1.752 19.008,-0.48L19.008,-0.468Z" style="fill:rgb(86,86,86);fill-rule:nonzero;"/>
            <path d="M32.16,-7.776C32.616,-7.776 32.868,-8.1 32.868,-8.424C32.868,-8.736 32.652,-9.036 32.196,-9.06C32.016,-9.072 31.356,-9.084 30.672,-9.084C30,-9.084 29.316,-9.072 29.1,-9.06C28.128,-9.012 27.504,-8.508 27.48,-7.548C27.456,-6.792 27.444,-5.16 27.444,-3.696C27.444,-2.724 27.444,-1.836 27.468,-1.332C27.516,-0.276 28.2,0.12 29.304,0.204C29.46,0.216 30.156,0.228 30.84,0.228C31.536,0.228 32.232,0.216 32.388,0.204C32.904,0.18 33.144,-0.144 33.144,-0.468C33.144,-0.78 32.916,-1.08 32.496,-1.08L32.436,-1.08C32.208,-1.068 31.44,-1.056 30.732,-1.056C29.04,-1.056 28.848,-1.08 28.788,-1.632C28.764,-1.836 28.752,-2.112 28.752,-3.9C28.752,-4.152 28.872,-4.164 30.36,-4.164C30.816,-4.164 31.272,-4.152 31.572,-4.128L31.632,-4.128C32.052,-4.128 32.268,-4.464 32.268,-4.812C32.268,-4.848 32.268,-5.484 31.596,-5.448C31.38,-5.436 30.804,-5.436 30.252,-5.436C28.776,-5.436 28.764,-5.436 28.764,-5.676C28.776,-6.372 28.764,-6.96 28.788,-7.248C28.824,-7.764 29.076,-7.788 30.276,-7.788C31.092,-7.788 32.16,-7.776 32.16,-7.776Z" style="fill:rgb(86,86,86);fill-rule:nonzero;"/>
        </g>
        <g transform="matrix(2.4857,0,0,2.4857,192.935,71.5229)">
            <path d="M5.772,-7.776C6.228,-7.776 6.48,-8.1 6.48,-8.424C6.48,-8.736 6.264,-9.036 5.808,-9.06C5.628,-9.072 4.968,-9.084 4.284,-9.084C3.612,-9.084 2.928,-9.072 2.712,-9.06C1.74,-9.012 1.116,-8.508 1.092,-7.548C1.068,-6.792 1.056,-5.16 1.056,-3.696C1.056,-2.724 1.056,-1.836 1.08,-1.332C1.128,-0.276 1.812,0.12 2.916,0.204C3.072,0.216 3.768,0.228 4.452,0.228C5.148,0.228 5.844,0.216 6,0.204C6.516,0.18 6.756,-0.144 6.756,-0.468C6.756,-0.78 6.528,-1.08 6.108,-1.08L6.048,-1.08C5.82,-1.068 5.052,-1.056 4.344,-1.056C2.652,-1.056 2.46,-1.08 2.4,-1.632C2.376,-1.836 2.364,-2.112 2.364,-3.9C2.364,-4.152 2.484,-4.164 3.972,-4.164C4.428,-4.164 4.884,-4.152 5.184,-4.128L5.244,-4.128C5.664,-4.128 5.88,-4.464 5.88,-4.812C5.88,-4.848 5.88,-5.484 5.208,-5.448C4.992,-5.436 4.416,-5.436 3.864,-5.436C2.388,-5.436 2.376,-5.436 2.376,-5.676C2.388,-6.372 2.376,-6.96 2.4,-7.248C2.436,-7.764 2.688,-7.788 3.888,-7.788C4.704,-7.788 5.772,-7.776 5.772,-7.776Z" style="fill:rgb(86,86,86);fill-rule:nonzero;"/>
            <path d="M11.736,0.216C13.5,0.216 15.42,-1.032 15.36,-3.648C15.348,-4.404 15.336,-5.076 15.336,-5.76C15.336,-6.54 15.348,-7.356 15.372,-8.352L15.372,-8.376C15.372,-8.784 15.024,-8.988 14.676,-8.988C14.436,-8.988 13.968,-8.892 13.98,-8.352C13.992,-7.836 14.004,-7.308 14.004,-6.78C14.004,-5.724 13.98,-4.656 13.98,-3.612C13.98,-1.98 12.816,-1.128 11.688,-1.128C10.596,-1.128 9.516,-1.908 9.516,-3.516L9.516,-4.008C9.516,-4.98 9.492,-5.964 9.492,-6.948C9.492,-7.416 9.504,-7.884 9.516,-8.352L9.516,-8.376C9.516,-8.784 9.168,-8.988 8.832,-8.988C8.352,-8.988 8.124,-8.7 8.136,-8.352C8.16,-7.656 8.16,-6.936 8.16,-6.204C8.16,-5.328 8.16,-4.44 8.148,-3.6L8.148,-3.54C8.148,-1.032 9.936,0.216 11.736,0.216Z" style="fill:rgb(86,86,86);fill-rule:nonzero;"/>
            <path d="M21.828,-1.38C22.644,0.072 23.628,0.108 23.82,0.108C24.348,0.108 24.588,-0.24 24.588,-0.6C24.588,-0.936 24.372,-1.26 23.964,-1.308C23.556,-1.356 23.28,-1.584 22.98,-2.076C22.56,-2.748 22.224,-3.48 21.636,-4.128C21.552,-4.224 21.468,-4.284 21.468,-4.332C21.468,-4.368 21.504,-4.38 21.588,-4.404C22.668,-4.62 23.34,-5.628 23.34,-6.66C23.34,-7.788 22.536,-8.928 20.592,-9.06C20.412,-9.072 20.136,-9.084 19.86,-9.084C18.852,-9.084 17.484,-9.084 17.448,-7.548C17.436,-7.056 17.436,-7.008 17.436,-4.416C17.436,-3.096 17.436,-1.668 17.4,-0.552L17.4,-0.528C17.4,-0.132 17.724,0.072 18.048,0.072C18.396,0.072 18.744,-0.144 18.756,-0.588C18.756,-1.02 18.72,-2.988 18.72,-3.888C18.72,-4.104 18.888,-4.116 19.116,-4.116C19.344,-4.116 19.62,-4.104 19.776,-4.104C20.352,-4.092 21.06,-2.712 21.828,-1.38ZM20.556,-5.22C20.34,-5.208 20.028,-5.196 19.728,-5.196C18.888,-5.196 18.732,-5.208 18.732,-5.448C18.744,-6.144 18.732,-6.996 18.756,-7.284C18.792,-7.848 19.224,-7.884 19.872,-7.884C20.1,-7.884 20.316,-7.884 20.472,-7.872C21.516,-7.812 21.972,-7.224 21.972,-6.624C21.972,-5.976 21.444,-5.304 20.556,-5.22Z" style="fill:rgb(86,86,86);fill-rule:nonzero;"/>
            <path d="M29.952,0.228C32.592,0.228 34.584,-1.632 34.584,-4.428C34.584,-7.128 32.592,-9.084 29.952,-9.084C27.312,-9.084 25.332,-7.128 25.332,-4.428C25.332,-1.632 27.312,0.228 29.952,0.228ZM29.952,-1.032C28.176,-1.032 26.736,-2.364 26.736,-4.428C26.736,-6.504 28.176,-7.848 29.952,-7.848C31.728,-7.848 33.168,-6.504 33.168,-4.428C33.168,-2.364 31.728,-1.032 29.952,-1.032Z" style="fill:rgb(86,86,86);fill-rule:nonzero;"/>
        </g>
        <g transform="matrix(1.5626,0,0,1.5626,277.278,32.4428)">
            <path d="M8.465,-1.365L8.465,-0.185L7.999,-0.055C7.235,0.151 6.542,0.254 5.92,0.254C4.653,0.254 3.644,-0.074 2.891,-0.731C2.139,-1.387 1.646,-2.371 1.413,-3.684L0.034,-3.684L0.384,-4.528L1.297,-4.528C1.287,-4.752 1.283,-4.923 1.283,-5.042C1.283,-5.22 1.297,-5.499 1.324,-5.879L0.034,-5.879L0.384,-6.73L1.461,-6.73C1.745,-7.951 2.276,-8.866 3.056,-9.477C3.836,-10.087 4.866,-10.393 6.146,-10.393C6.814,-10.393 7.582,-10.292 8.451,-10.091L8.451,-8.842C7.614,-9.167 6.851,-9.329 6.16,-9.329C5.342,-9.329 4.657,-9.112 4.106,-8.678C3.555,-8.243 3.14,-7.594 2.861,-6.73L7.573,-6.73L7.223,-5.879L2.675,-5.879C2.648,-5.508 2.634,-5.232 2.634,-5.049C2.634,-4.93 2.639,-4.756 2.648,-4.528L6.661,-4.528L6.311,-3.684L2.799,-3.684C3.055,-2.746 3.454,-2.043 3.996,-1.574C4.538,-1.106 5.225,-0.871 6.057,-0.871C6.739,-0.871 7.541,-1.036 8.465,-1.365Z" style="fill:rgb(146,146,146);fill-rule:nonzero;"/>
        </g>
    </g>
</svg>
